<mxfile host="app.diagrams.net" modified="2023-03-25T05:23:08.879Z" agent="Mozilla/5.0 (Macintosh; Intel Mac OS X 10_15_7) AppleWebKit/605.1.15 (KHTML, like Gecko) Version/15.3 Safari/605.1.15" version="21.1.1" etag="76QnTXVYoiNJCbUHYCkr" type="github">
  <diagram name="第 1 页" id="Jfqysj_jegbw57iq_6KR">
    <mxGraphModel>
      <root>
        <mxCell id="0" />
        <mxCell id="1" parent="0" />
      </root>
    </mxGraphModel>
  </diagram>
</mxfile>
